# xmcd
#
# Track frame offsets:
#	150
#	44033
#	86566
#
# Disc length: 1450 seconds
#
# Revision: 1
# Processed by: cddbd v1.5.2PL0 Copyright (c) Steve Scherf et al.
# Submitted via: audiograbber 1.83.01
#
DISCID=2105a803
DTITLE=Grateful Dead - 73-08-01 Roosevelt Stadium, Jersey City NJ
DYEAR=1900
DGENRE=
TTITLE0=Sugar Magnolia
TTITLE1=GDTRFB
TTITLE2=One More Saturday Night
EXTD=
EXTT0=
EXTT1=
EXTT2=
PLAYORDER=
